<?xml version="1.0" encoding="UTF-8"?>
<svg xmlns="http://www.w3.org/2000/svg" xmlns:xlink="http://www.w3.org/1999/xlink" width="25pt" height="25pt" viewBox="0 0 25 25" version="1.1">
<g id="surface1">
<path style=" stroke:none;fill-rule:nonzero;fill:rgb(0%,0%,0%);fill-opacity:1;" d="M 0 0.273438 C 0 0.398438 0.125 0.449219 0.25 0.375 C 0.375 0.300781 0.5 0.175781 0.5 0.101562 C 0.5 0.0507812 0.398438 0 0.25 0 C 0.125 0 0 0.125 0 0.273438 Z M 0 0.273438 "/>
<path style=" stroke:none;fill-rule:nonzero;fill:rgb(0%,0%,0%);fill-opacity:1;" d="M 2.300781 0.425781 C 1.449219 1.023438 0 3 0 3.550781 C 0 3.875 0.375 3.574219 1.148438 2.574219 C 1.773438 1.773438 2.601562 0.875 2.976562 0.574219 C 3.75 -0.101562 3.199219 -0.199219 2.300781 0.425781 Z M 2.300781 0.425781 "/>
<path style=" stroke:none;fill-rule:nonzero;fill:rgb(0%,0%,0%);fill-opacity:1;" d="M 5 1 C 3.324219 2.226562 2.976562 2.648438 1.851562 4.875 C 1.351562 5.824219 0.726562 6.875 0.449219 7.175781 C 0.175781 7.476562 0 7.851562 0.0507812 8.050781 C 0.25 8.625 1.5 7.074219 2.375 5.175781 C 3.300781 3.125 4.5 1.875 6.5 0.773438 C 7.773438 0.0742188 7.824219 0 7.125 0.0234375 C 6.648438 0.0234375 5.875 0.375 5 1 Z M 5 1 "/>
<path style=" stroke:none;fill-rule:nonzero;fill:rgb(0%,0%,0%);fill-opacity:1;" d="M 8.574219 1.699219 C 5.875 4.375 4.476562 7.648438 5 10.125 C 5.476562 12.425781 6.875 13.925781 9.101562 14.523438 C 10.949219 15.023438 12.273438 14.875 15.273438 13.75 C 19.101562 12.351562 21.226562 12.175781 23.449219 13.074219 C 24.574219 13.523438 25 13.601562 25 13.375 C 25 13.175781 24.351562 12.800781 23.574219 12.5 C 21.449219 11.699219 18.925781 11.898438 15.5 13.125 C 12.5 14.199219 10.976562 14.425781 9.300781 14 C 3.675781 12.601562 4.425781 5.148438 10.625 0.574219 C 11.324219 0.0507812 11.324219 0.0234375 10.824219 0 C 10.476562 0 9.648438 0.601562 8.574219 1.699219 Z M 8.574219 1.699219 "/>
<path style=" stroke:none;fill-rule:nonzero;fill:rgb(0%,0%,0%);fill-opacity:1;" d="M 12.625 0.675781 C 10.273438 2.175781 8.773438 4.199219 8.125 6.726562 C 7.625 8.726562 7.800781 10.023438 8.773438 11.125 C 10.199219 12.726562 13.800781 12.925781 18.125 11.601562 C 20.574219 10.851562 23.449219 10.675781 24.449219 11.199219 C 24.898438 11.476562 25 11.449219 25 11.148438 C 25 10.675781 23.523438 10.25 21.851562 10.25 C 21.148438 10.25 19.476562 10.574219 18.101562 11 C 15.023438 11.925781 13.023438 12.148438 11.226562 11.773438 C 9.351562 11.375 8.699219 10.675781 8.550781 8.898438 C 8.273438 5.574219 10.273438 2.550781 14.074219 0.574219 C 15.101562 0.0234375 15.125 0.0234375 14.375 0.0234375 C 13.976562 0.0234375 13.175781 0.324219 12.625 0.675781 Z M 12.625 0.675781 "/>
<path style=" stroke:none;fill-rule:nonzero;fill:rgb(0%,0%,0%);fill-opacity:1;" d="M 20 0.398438 C 19.523438 0.601562 18.050781 1.175781 16.75 1.675781 C 13.375 2.925781 12.226562 3.574219 11.175781 4.726562 C 9.425781 6.675781 9.074219 8.125 10.050781 9.375 C 11.324219 11 13.300781 11.125 17.898438 9.851562 C 20.351562 9.148438 21.574219 8.949219 23.074219 8.949219 C 25.125 8.949219 25.648438 8.648438 24.023438 8.375 C 22.699219 8.148438 21.148438 8.398438 17.875 9.324219 C 13.175781 10.648438 10.75 10.324219 10.148438 8.300781 C 9.976562 7.625 10.050781 7.300781 10.773438 6.101562 C 11.824219 4.375 12.625 3.875 17.574219 1.949219 C 22.601562 0 22.550781 0.0234375 21.625 0.0234375 C 21.226562 0.0234375 20.476562 0.199219 20 0.398438 Z M 20 0.398438 "/>
<path style=" stroke:none;fill-rule:nonzero;fill:rgb(0%,0%,0%);fill-opacity:1;" d="M 23.976562 0.75 C 23.625 1 22.050781 1.574219 20.476562 2 C 18.898438 2.425781 16.976562 3.074219 16.175781 3.425781 C 14.75 4.074219 13.25 5.449219 13.25 6.101562 C 13.25 7.199219 15.574219 7.398438 19.050781 6.625 C 20.25 6.375 21.699219 6.25 22.976562 6.300781 C 24.398438 6.351562 25 6.300781 25 6.074219 C 25 5.5 22.324219 5.398438 20.023438 5.898438 C 17.398438 6.449219 14.300781 6.648438 13.925781 6.273438 C 13.726562 6.074219 13.949219 5.726562 14.648438 5.074219 C 15.476562 4.273438 16.273438 3.925781 19.398438 2.898438 C 23.324219 1.625 25 0.898438 25 0.5 C 25 0.125 24.699219 0.199219 23.976562 0.75 Z M 23.976562 0.75 "/>
<path style=" stroke:none;fill-rule:nonzero;fill:rgb(0%,0%,0%);fill-opacity:1;" d="M 23.050781 2.375 C 20.5 3.601562 20.648438 4.300781 23.574219 4.574219 C 24.699219 4.675781 25 4.648438 25 4.351562 C 25 4.101562 24.648438 4 23.699219 4 C 21.925781 4 21.425781 3.675781 22.398438 3.175781 C 22.800781 2.976562 23.550781 2.675781 24.074219 2.523438 C 24.574219 2.351562 25 2.050781 25 1.851562 C 25 1.398438 25.148438 1.351562 23.050781 2.375 Z M 23.050781 2.375 "/>
<path style=" stroke:none;fill-rule:nonzero;fill:rgb(0%,0%,0%);fill-opacity:1;" d="M 0 10.75 C 0 10.875 0.226562 11 0.476562 11 C 1.425781 11 5 13.074219 6.675781 14.601562 C 9.023438 16.726562 9.726562 17.175781 11.074219 17.5 C 12.699219 17.925781 14.25 17.5 16.648438 15.976562 C 20.675781 13.449219 23.75 13.375 23.75 15.824219 C 23.75 17 23 17.601562 18.898438 19.773438 C 16.351562 21.125 14.949219 22.050781 13.773438 23.175781 C 12.851562 24 12.199219 24.773438 12.300781 24.875 C 12.398438 25 13.199219 24.398438 14.074219 23.601562 C 15.175781 22.574219 16.726562 21.574219 19.148438 20.273438 C 22.773438 18.351562 23.898438 17.523438 24.273438 16.523438 C 24.601562 15.726562 24.148438 14.398438 23.375 13.898438 C 22.148438 13.101562 19.375 13.601562 17.125 15.023438 C 12.851562 17.75 11.023438 17.699219 7.75 14.800781 C 5.773438 13.050781 3.425781 11.550781 1.726562 11 C 0.0234375 10.425781 0 10.425781 0 10.75 Z M 0 10.75 "/>
<path style=" stroke:none;fill-rule:nonzero;fill:rgb(0%,0%,0%);fill-opacity:1;" d="M 0 12.699219 C 0 12.851562 0.375 13.050781 0.824219 13.125 C 2.050781 13.398438 3.425781 14.148438 5.824219 15.925781 C 10.976562 19.699219 13.625 19.976562 17.625 17.101562 C 19.226562 15.976562 20 15.824219 20 16.625 C 20 17.101562 18.300781 18.324219 15.050781 20.148438 C 12.625 21.523438 10.699219 23.175781 9.976562 24.550781 C 9.5 25.449219 10.199219 24.976562 11.351562 23.648438 C 12.101562 22.773438 13.199219 21.898438 14.550781 21.101562 C 18.800781 18.675781 20.226562 17.699219 20.425781 17.175781 C 20.75 16.148438 20.375 15.5 19.398438 15.5 C 19.148438 15.5 18.199219 16.023438 17.300781 16.648438 C 13.375 19.398438 11.175781 19.148438 6.074219 15.425781 C 4.875 14.550781 3.425781 13.574219 2.875 13.300781 C 1.625 12.675781 0 12.324219 0 12.699219 Z M 0 12.699219 "/>
<path style=" stroke:none;fill-rule:nonzero;fill:rgb(0%,0%,0%);fill-opacity:1;" d="M 0 14.75 C 0 14.875 0.226562 15 0.5 15 C 1.523438 15 3.699219 16.050781 5.351562 17.375 C 6.273438 18.125 7.699219 19.050781 8.476562 19.425781 C 10.75 20.523438 10.773438 20.824219 8.726562 23.148438 C 6.976562 25.148438 7.125 25.648438 8.898438 23.75 C 10.601562 21.949219 10.800781 21.601562 10.699219 20.699219 C 10.625 20.023438 10.425781 19.824219 8.875 19.023438 C 7.925781 18.5 6.398438 17.523438 5.5 16.800781 C 3.898438 15.5 1.773438 14.5 0.625 14.5 C 0.273438 14.5 0 14.601562 0 14.75 Z M 0 14.75 "/>
<path style=" stroke:none;fill-rule:nonzero;fill:rgb(0%,0%,0%);fill-opacity:1;" d="M 0 16.824219 C 0 17.023438 0.351562 17.101562 1.125 17.050781 C 1.976562 16.976562 2.601562 17.125 3.601562 17.601562 C 5 18.300781 7.5 20.699219 7.5 21.375 C 7.5 21.601562 7.125 22.125 6.648438 22.574219 C 5.800781 23.375 5.25 24.226562 5.25 24.726562 C 5.25 25.199219 5.699219 25.023438 5.875 24.449219 C 5.976562 24.175781 6.5 23.5 7.023438 22.976562 C 7.574219 22.425781 8 21.773438 8 21.449219 C 8 20.199219 5.574219 17.773438 3.398438 16.875 C 2.300781 16.398438 0 16.375 0 16.824219 Z M 0 16.824219 "/>
<path style=" stroke:none;fill-rule:nonzero;fill:rgb(0%,0%,0%);fill-opacity:1;" d="M 0.550781 18.398438 C 0.25 18.601562 0 19 0 19.300781 C 0 19.773438 0.0507812 19.773438 0.523438 19.148438 C 1.425781 18 3.648438 18.5 4.898438 20.125 C 5.699219 21.175781 5.648438 21.851562 4.773438 22.699219 C 4.101562 23.324219 3.898438 23.824219 3.976562 24.675781 C 4.023438 25.351562 4.5 24.976562 4.5 24.273438 C 4.5 23.75 4.726562 23.351562 5.300781 22.925781 C 6.300781 22.125 6.351562 21.125 5.398438 19.898438 C 4.148438 18.25 1.800781 17.523438 0.550781 18.398438 Z M 0.550781 18.398438 "/>
<path style=" stroke:none;fill-rule:nonzero;fill:rgb(0%,0%,0%);fill-opacity:1;" d="M 23.625 18.476562 C 22.925781 18.726562 21.898438 19.175781 21.324219 19.476562 C 20.050781 20.125 17.226562 22.726562 16.476562 23.898438 C 15.875 24.898438 16.101562 25.449219 16.726562 24.5 C 18.199219 22.226562 20.875 20.125 23.425781 19.226562 C 24.273438 18.898438 25 18.5 25 18.324219 C 25 18.148438 24.976562 18 24.949219 18.023438 C 24.898438 18.023438 24.300781 18.226562 23.625 18.476562 Z M 23.625 18.476562 "/>
<path style=" stroke:none;fill-rule:nonzero;fill:rgb(0%,0%,0%);fill-opacity:1;" d="M 22.675781 19.851562 C 21.625 20.226562 21.273438 20.476562 19.925781 21.726562 C 18.773438 22.800781 17.550781 25 18.101562 25 C 18.273438 25 18.5 24.75 18.601562 24.425781 C 18.800781 23.574219 20.625 21.601562 21.824219 20.875 C 22.398438 20.550781 23.351562 20.199219 23.949219 20.101562 C 24.523438 20.023438 25 19.851562 25 19.726562 C 25 19.398438 23.773438 19.476562 22.675781 19.851562 Z M 22.675781 19.851562 "/>
<path style=" stroke:none;fill-rule:nonzero;fill:rgb(0%,0%,0%);fill-opacity:1;" d="M 1.824219 20.398438 C 1.574219 20.75 1.074219 21.324219 0.699219 21.675781 C -0.351562 22.675781 -0.101562 23.75 1.175781 23.75 C 1.574219 23.75 1.773438 23.925781 1.898438 24.375 C 2.074219 25.050781 2.5 25.226562 2.5 24.625 C 2.5 24.101562 1.601562 23.25 1.023438 23.25 C 0.125 23.25 0.199219 22.773438 1.300781 21.5 C 2.398438 20.199219 2.875 20.050781 3.351562 20.824219 C 3.550781 21.148438 3.523438 21.425781 3.199219 22.023438 C 2.726562 22.851562 2.648438 23.800781 3 24.625 C 3.148438 25 3.226562 24.800781 3.25 23.875 C 3.25 23.175781 3.425781 22.398438 3.625 22.148438 C 4.125 21.476562 4.101562 20.851562 3.5 20.25 C 2.824219 19.574219 2.375 19.625 1.824219 20.398438 Z M 1.824219 20.398438 "/>
<path style=" stroke:none;fill-rule:nonzero;fill:rgb(0%,0%,0%);fill-opacity:1;" d="M 22.550781 21.175781 C 21.324219 21.773438 19.199219 24.550781 19.625 24.949219 C 19.726562 25.050781 19.925781 24.925781 20.101562 24.648438 C 21.449219 22.425781 22.925781 21.25 24.351562 21.25 C 24.699219 21.25 25 21.125 25 21 C 25 20.601562 23.476562 20.726562 22.550781 21.175781 Z M 22.550781 21.175781 "/>
<path style=" stroke:none;fill-rule:nonzero;fill:rgb(0%,0%,0%);fill-opacity:1;" d="M 23.324219 22.851562 C 22.550781 23.5 21.601562 25 21.949219 25 C 22.074219 25 22.523438 24.550781 22.976562 24 C 23.398438 23.449219 24.050781 22.925781 24.375 22.851562 C 24.726562 22.773438 25 22.601562 25 22.476562 C 25 22.050781 24.023438 22.25 23.324219 22.851562 Z M 23.324219 22.851562 "/>
<path style=" stroke:none;fill-rule:nonzero;fill:rgb(0%,0%,0%);fill-opacity:1;" d="M 24.125 24.398438 L 23.375 25 L 24.125 24.949219 C 24.726562 24.925781 24.898438 24.773438 24.949219 24.324219 C 25 23.625 25.050781 23.625 24.125 24.398438 Z M 24.125 24.398438 "/>
<path style=" stroke:none;fill-rule:nonzero;fill:rgb(0%,0%,0%);fill-opacity:1;" d="M 0 24.75 C 0 24.875 0.226562 25 0.523438 25 C 0.800781 25 0.949219 24.898438 0.875 24.75 C 0.675781 24.425781 0 24.425781 0 24.75 Z M 0 24.75 "/>
</g>
</svg>
