<?xml version="1.0" encoding="UTF-8"?>
<svg xmlns="http://www.w3.org/2000/svg" xmlns:xlink="http://www.w3.org/1999/xlink" width="32pt" height="32pt" viewBox="0 0 32 32" version="1.1">
<g id="surface1">
<path style=" stroke:none;fill-rule:nonzero;fill:rgb(0%,0%,0%);fill-opacity:1;" d="M 0 0.351562 C 0 0.511719 0.160156 0.574219 0.320312 0.480469 C 0.480469 0.382812 0.640625 0.222656 0.640625 0.128906 C 0.640625 0.0625 0.511719 0 0.320312 0 C 0.160156 0 0 0.160156 0 0.351562 Z M 0 0.351562 "/>
<path style=" stroke:none;fill-rule:nonzero;fill:rgb(0%,0%,0%);fill-opacity:1;" d="M 2.945312 0.542969 C 1.855469 1.3125 0 3.839844 0 4.542969 C 0 4.960938 0.480469 4.574219 1.472656 3.296875 C 2.273438 2.273438 3.328125 1.121094 3.808594 0.734375 C 4.800781 -0.128906 4.097656 -0.257812 2.945312 0.542969 Z M 2.945312 0.542969 "/>
<path style=" stroke:none;fill-rule:nonzero;fill:rgb(0%,0%,0%);fill-opacity:1;" d="M 6.398438 1.28125 C 4.257812 2.847656 3.808594 3.390625 2.367188 6.238281 C 1.726562 7.457031 0.929688 8.800781 0.574219 9.183594 C 0.222656 9.566406 0 10.046875 0.0625 10.304688 C 0.320312 11.039062 1.921875 9.054688 3.039062 6.625 C 4.222656 4 5.761719 2.398438 8.320312 0.992188 C 9.953125 0.0976562 10.015625 0 9.121094 0.03125 C 8.511719 0.03125 7.519531 0.480469 6.398438 1.28125 Z M 6.398438 1.28125 "/>
<path style=" stroke:none;fill-rule:nonzero;fill:rgb(0%,0%,0%);fill-opacity:1;" d="M 10.976562 2.175781 C 7.519531 5.601562 5.726562 9.792969 6.398438 12.960938 C 7.007812 15.902344 8.800781 17.824219 11.648438 18.59375 C 14.015625 19.230469 15.710938 19.039062 19.550781 17.601562 C 24.449219 15.808594 27.167969 15.585938 30.015625 16.734375 C 31.457031 17.3125 32 17.40625 32 17.121094 C 32 16.863281 31.167969 16.382812 30.175781 16 C 27.457031 14.976562 24.222656 15.230469 19.839844 16.800781 C 16 18.175781 14.046875 18.464844 11.902344 17.921875 C 4.703125 16.128906 5.664062 6.59375 13.601562 0.734375 C 14.496094 0.0625 14.496094 0.03125 13.855469 0 C 13.40625 0 12.351562 0.769531 10.976562 2.175781 Z M 10.976562 2.175781 "/>
<path style=" stroke:none;fill-rule:nonzero;fill:rgb(0%,0%,0%);fill-opacity:1;" d="M 16.160156 0.863281 C 13.152344 2.785156 11.230469 5.375 10.398438 8.609375 C 9.761719 11.167969 9.984375 12.832031 11.230469 14.238281 C 13.054688 16.289062 17.664062 16.542969 23.199219 14.847656 C 26.335938 13.886719 30.015625 13.664062 31.296875 14.335938 C 31.871094 14.6875 32 14.65625 32 14.273438 C 32 13.664062 30.113281 13.121094 27.96875 13.121094 C 27.070312 13.121094 24.929688 13.535156 23.167969 14.078125 C 19.230469 15.265625 16.671875 15.550781 14.367188 15.070312 C 11.96875 14.558594 11.136719 13.664062 10.945312 11.390625 C 10.59375 7.136719 13.152344 3.265625 18.015625 0.734375 C 19.328125 0.03125 19.359375 0.03125 18.398438 0.03125 C 17.886719 0.03125 16.863281 0.414062 16.160156 0.863281 Z M 16.160156 0.863281 "/>
<path style=" stroke:none;fill-rule:nonzero;fill:rgb(0%,0%,0%);fill-opacity:1;" d="M 25.601562 0.511719 C 24.992188 0.769531 23.105469 1.503906 21.441406 2.144531 C 17.121094 3.742188 15.648438 4.574219 14.304688 6.046875 C 12.0625 8.542969 11.617188 10.398438 12.863281 12 C 14.496094 14.078125 17.023438 14.238281 22.910156 12.609375 C 26.046875 11.710938 27.617188 11.457031 29.535156 11.457031 C 32.160156 11.457031 32.832031 11.070312 30.753906 10.71875 C 29.054688 10.433594 27.070312 10.753906 22.878906 11.9375 C 16.863281 13.632812 13.761719 13.214844 12.992188 10.625 C 12.769531 9.761719 12.863281 9.34375 13.792969 7.808594 C 15.136719 5.601562 16.160156 4.960938 22.496094 2.496094 C 28.929688 0 28.863281 0.03125 27.679688 0.03125 C 27.167969 0.03125 26.207031 0.257812 25.601562 0.511719 Z M 25.601562 0.511719 "/>
<path style=" stroke:none;fill-rule:nonzero;fill:rgb(0%,0%,0%);fill-opacity:1;" d="M 30.6875 0.960938 C 30.238281 1.28125 28.222656 2.015625 26.207031 2.558594 C 24.191406 3.105469 21.726562 3.9375 20.703125 4.382812 C 18.878906 5.214844 16.960938 6.976562 16.960938 7.808594 C 16.960938 9.214844 19.9375 9.472656 24.382812 8.480469 C 25.921875 8.160156 27.777344 8 29.40625 8.0625 C 31.230469 8.128906 32 8.0625 32 7.777344 C 32 7.039062 28.574219 6.910156 25.632812 7.550781 C 22.273438 8.257812 18.304688 8.511719 17.824219 8.03125 C 17.566406 7.777344 17.855469 7.328125 18.753906 6.496094 C 19.808594 5.472656 20.832031 5.023438 24.832031 3.710938 C 29.855469 2.078125 32 1.152344 32 0.640625 C 32 0.160156 31.617188 0.257812 30.6875 0.960938 Z M 30.6875 0.960938 "/>
<path style=" stroke:none;fill-rule:nonzero;fill:rgb(0%,0%,0%);fill-opacity:1;" d="M 29.503906 3.039062 C 26.238281 4.609375 26.433594 5.503906 30.175781 5.855469 C 31.617188 5.984375 32 5.953125 32 5.566406 C 32 5.246094 31.550781 5.121094 30.335938 5.121094 C 28.0625 5.121094 27.425781 4.703125 28.671875 4.0625 C 29.183594 3.808594 30.144531 3.425781 30.816406 3.230469 C 31.457031 3.007812 32 2.625 32 2.367188 C 32 1.792969 32.191406 1.726562 29.503906 3.039062 Z M 29.503906 3.039062 "/>
<path style=" stroke:none;fill-rule:nonzero;fill:rgb(0%,0%,0%);fill-opacity:1;" d="M 0 13.761719 C 0 13.921875 0.289062 14.078125 0.609375 14.078125 C 1.824219 14.078125 6.398438 16.734375 8.542969 18.6875 C 11.550781 21.40625 12.449219 21.984375 14.175781 22.398438 C 16.257812 22.945312 18.238281 22.398438 21.3125 20.449219 C 26.464844 17.214844 30.398438 17.121094 30.398438 20.257812 C 30.398438 21.761719 29.441406 22.527344 24.191406 25.3125 C 20.929688 27.039062 19.136719 28.222656 17.632812 29.664062 C 16.449219 30.71875 15.617188 31.710938 15.742188 31.839844 C 15.871094 32 16.894531 31.230469 18.015625 30.207031 C 19.425781 28.894531 21.40625 27.617188 24.511719 25.953125 C 29.152344 23.488281 30.59375 22.433594 31.070312 21.152344 C 31.488281 20.128906 30.910156 18.433594 29.921875 17.792969 C 28.351562 16.769531 24.800781 17.40625 21.921875 19.230469 C 16.449219 22.71875 14.113281 22.65625 9.921875 18.945312 C 7.390625 16.703125 4.382812 14.785156 2.207031 14.078125 C 0.03125 13.34375 0 13.34375 0 13.761719 Z M 0 13.761719 "/>
<path style=" stroke:none;fill-rule:nonzero;fill:rgb(0%,0%,0%);fill-opacity:1;" d="M 0 16.257812 C 0 16.449219 0.480469 16.703125 1.054688 16.800781 C 2.625 17.152344 4.382812 18.113281 7.457031 20.382812 C 14.046875 25.214844 17.441406 25.566406 22.558594 21.886719 C 24.609375 20.449219 25.601562 20.257812 25.601562 21.28125 C 25.601562 21.886719 23.425781 23.457031 19.265625 25.792969 C 16.160156 27.550781 13.695312 29.664062 12.769531 31.425781 C 12.160156 32.574219 13.054688 31.96875 14.527344 30.273438 C 15.488281 29.152344 16.894531 28.03125 18.625 27.007812 C 24.0625 23.902344 25.886719 22.65625 26.144531 21.984375 C 26.558594 20.671875 26.078125 19.839844 24.832031 19.839844 C 24.511719 19.839844 23.296875 20.511719 22.144531 21.3125 C 17.121094 24.832031 14.304688 24.511719 7.777344 19.742188 C 6.238281 18.625 4.382812 17.375 3.679688 17.023438 C 2.078125 16.222656 0 15.777344 0 16.257812 Z M 0 16.257812 "/>
<path style=" stroke:none;fill-rule:nonzero;fill:rgb(0%,0%,0%);fill-opacity:1;" d="M 0 18.878906 C 0 19.039062 0.289062 19.199219 0.640625 19.199219 C 1.953125 19.199219 4.734375 20.542969 6.847656 22.238281 C 8.03125 23.199219 9.855469 24.382812 10.847656 24.863281 C 13.761719 26.273438 13.792969 26.65625 11.167969 29.632812 C 8.929688 32.191406 9.121094 32.832031 11.390625 30.398438 C 13.566406 28.097656 13.824219 27.648438 13.695312 26.496094 C 13.601562 25.632812 13.34375 25.375 11.359375 24.351562 C 10.144531 23.679688 8.191406 22.433594 7.039062 21.503906 C 4.992188 19.839844 2.273438 18.558594 0.800781 18.558594 C 0.351562 18.558594 0 18.6875 0 18.878906 Z M 0 18.878906 "/>
<path style=" stroke:none;fill-rule:nonzero;fill:rgb(0%,0%,0%);fill-opacity:1;" d="M 0 21.535156 C 0 21.792969 0.449219 21.886719 1.441406 21.824219 C 2.527344 21.726562 3.328125 21.921875 4.609375 22.527344 C 6.398438 23.425781 9.601562 26.496094 9.601562 27.359375 C 9.601562 27.648438 9.121094 28.320312 8.511719 28.894531 C 7.425781 29.921875 6.71875 31.007812 6.71875 31.648438 C 6.71875 32.257812 7.296875 32.03125 7.519531 31.296875 C 7.648438 30.945312 8.320312 30.078125 8.992188 29.40625 C 9.695312 28.703125 10.238281 27.871094 10.238281 27.457031 C 10.238281 25.855469 7.136719 22.753906 4.351562 21.601562 C 2.945312 20.992188 0 20.960938 0 21.535156 Z M 0 21.535156 "/>
<path style=" stroke:none;fill-rule:nonzero;fill:rgb(0%,0%,0%);fill-opacity:1;" d="M 0.703125 23.550781 C 0.320312 23.808594 0 24.320312 0 24.703125 C 0 25.3125 0.0625 25.3125 0.671875 24.511719 C 1.824219 23.039062 4.671875 23.679688 6.273438 25.761719 C 7.296875 27.105469 7.230469 27.96875 6.113281 29.054688 C 5.246094 29.855469 4.992188 30.496094 5.089844 31.585938 C 5.152344 32.449219 5.761719 31.96875 5.761719 31.070312 C 5.761719 30.398438 6.046875 29.886719 6.785156 29.34375 C 8.0625 28.320312 8.128906 27.039062 6.910156 25.472656 C 5.3125 23.359375 2.304688 22.433594 0.703125 23.550781 Z M 0.703125 23.550781 "/>
<path style=" stroke:none;fill-rule:nonzero;fill:rgb(0%,0%,0%);fill-opacity:1;" d="M 30.238281 23.648438 C 29.34375 23.96875 28.03125 24.542969 27.296875 24.929688 C 25.664062 25.761719 22.046875 29.089844 21.089844 30.59375 C 20.320312 31.871094 20.609375 32.574219 21.40625 31.359375 C 23.296875 28.449219 26.71875 25.761719 29.984375 24.609375 C 31.070312 24.191406 32 23.679688 32 23.457031 C 32 23.230469 31.96875 23.039062 31.9375 23.070312 C 31.871094 23.070312 31.105469 23.328125 30.238281 23.648438 Z M 30.238281 23.648438 "/>
<path style=" stroke:none;fill-rule:nonzero;fill:rgb(0%,0%,0%);fill-opacity:1;" d="M 29.023438 25.40625 C 27.679688 25.886719 27.230469 26.207031 25.503906 27.808594 C 24.03125 29.183594 22.464844 32 23.167969 32 C 23.390625 32 23.679688 31.679688 23.808594 31.265625 C 24.0625 30.175781 26.398438 27.648438 27.9375 26.71875 C 28.671875 26.304688 29.886719 25.855469 30.65625 25.726562 C 31.390625 25.632812 32 25.40625 32 25.246094 C 32 24.832031 30.433594 24.929688 29.023438 25.40625 Z M 29.023438 25.40625 "/>
<path style=" stroke:none;fill-rule:nonzero;fill:rgb(0%,0%,0%);fill-opacity:1;" d="M 2.335938 26.113281 C 2.015625 26.558594 1.375 27.296875 0.894531 27.742188 C -0.449219 29.023438 -0.128906 30.398438 1.503906 30.398438 C 2.015625 30.398438 2.273438 30.625 2.433594 31.199219 C 2.65625 32.0625 3.199219 32.289062 3.199219 31.519531 C 3.199219 30.847656 2.046875 29.761719 1.3125 29.761719 C 0.160156 29.761719 0.257812 29.152344 1.664062 27.519531 C 3.070312 25.855469 3.679688 25.664062 4.289062 26.65625 C 4.542969 27.070312 4.511719 27.425781 4.097656 28.191406 C 3.488281 29.246094 3.390625 30.464844 3.839844 31.519531 C 4.03125 32 4.128906 31.742188 4.160156 30.558594 C 4.160156 29.664062 4.382812 28.671875 4.640625 28.351562 C 5.28125 27.488281 5.246094 26.6875 4.480469 25.921875 C 3.617188 25.054688 3.039062 25.121094 2.335938 26.113281 Z M 2.335938 26.113281 "/>
<path style=" stroke:none;fill-rule:nonzero;fill:rgb(0%,0%,0%);fill-opacity:1;" d="M 28.863281 27.105469 C 27.296875 27.871094 24.574219 31.425781 25.121094 31.9375 C 25.246094 32.0625 25.503906 31.902344 25.726562 31.550781 C 27.457031 28.703125 29.34375 27.199219 31.167969 27.199219 C 31.617188 27.199219 32 27.039062 32 26.878906 C 32 26.367188 30.046875 26.527344 28.863281 27.105469 Z M 28.863281 27.105469 "/>
<path style=" stroke:none;fill-rule:nonzero;fill:rgb(0%,0%,0%);fill-opacity:1;" d="M 29.855469 29.246094 C 28.863281 30.078125 27.648438 32 28.097656 32 C 28.257812 32 28.832031 31.425781 29.40625 30.71875 C 29.953125 30.015625 30.785156 29.34375 31.199219 29.246094 C 31.648438 29.152344 32 28.929688 32 28.769531 C 32 28.222656 30.753906 28.480469 29.855469 29.246094 Z M 29.855469 29.246094 "/>
<path style=" stroke:none;fill-rule:nonzero;fill:rgb(0%,0%,0%);fill-opacity:1;" d="M 30.878906 31.230469 L 29.921875 32 L 30.878906 31.9375 C 31.648438 31.902344 31.871094 31.710938 31.9375 31.136719 C 32 30.238281 32.0625 30.238281 30.878906 31.230469 Z M 30.878906 31.230469 "/>
<path style=" stroke:none;fill-rule:nonzero;fill:rgb(0%,0%,0%);fill-opacity:1;" d="M 0 31.679688 C 0 31.839844 0.289062 32 0.671875 32 C 1.023438 32 1.214844 31.871094 1.121094 31.679688 C 0.863281 31.265625 0 31.265625 0 31.679688 Z M 0 31.679688 "/>
</g>
</svg>
