<?xml version="1.0" standalone="no"?>
<!DOCTYPE svg PUBLIC "-//W3C//DTD SVG 20010904//EN"
 "http://www.w3.org/TR/2001/REC-SVG-20010904/DTD/svg10.dtd">
<svg version="1.0" xmlns="http://www.w3.org/2000/svg"
 width="100.000000pt" height="100.000000pt" viewBox="0 0 100.000000 100.000000"
 preserveAspectRatio="xMidYMid meet">

<g transform="translate(0.000000,100.000000) scale(0.100000,-0.100000)"
fill="#000000" stroke="none">
<path d="M0 989 c0 -5 5 -7 10 -4 5 3 10 8 10 11 0 2 -4 4 -10 4 -5 0 -10 -5
-10 -11z"/>
<path d="M92 983 c-34 -24 -92 -103 -92 -125 0 -13 15 -1 46 39 25 32 58 68
73 80 31 27 9 31 -27 6z"/>
<path d="M200 960 c-67 -49 -81 -66 -126 -155 -20 -38 -45 -80 -56 -92 -11
-12 -18 -27 -16 -35 8 -23 58 39 93 115 37 82 85 132 165 176 51 28 53 31 25
30 -19 0 -50 -14 -85 -39z"/>
<path d="M343 932 c-108 -107 -164 -238 -143 -337 19 -92 75 -152 164 -176 74
-20 127 -14 247 31 153 56 238 63 327 27 45 -18 62 -21 62 -12 0 8 -26 23 -57
35 -85 32 -186 24 -323 -25 -120 -43 -181 -52 -248 -35 -225 56 -195 354 53
537 28 21 28 22 8 23 -14 0 -47 -24 -90 -68z"/>
<path d="M505 973 c-94 -60 -154 -141 -180 -242 -20 -80 -13 -132 26 -176 57
-64 201 -72 374 -19 98 30 213 37 253 16 18 -11 22 -10 22 2 0 19 -59 36 -126
36 -28 0 -95 -13 -150 -30 -123 -37 -203 -46 -275 -31 -75 16 -101 44 -107
115 -11 133 69 254 221 333 41 22 42 22 12 22 -16 0 -48 -12 -70 -26z"/>
<path d="M800 984 c-19 -8 -78 -31 -130 -51 -135 -50 -181 -76 -223 -122 -70
-78 -84 -136 -45 -186 51 -65 130 -70 314 -19 98 28 147 36 207 36 82 0 103
12 38 23 -53 9 -115 -1 -246 -38 -188 -53 -285 -40 -309 41 -7 27 -4 40 25 88
42 69 74 89 272 166 201 78 199 77 162 77 -16 0 -46 -7 -65 -15z"/>
<path d="M959 970 c-14 -10 -77 -33 -140 -50 -63 -17 -140 -43 -172 -57 -57
-26 -117 -81 -117 -107 0 -44 93 -52 232 -21 48 10 106 15 157 13 57 -2 81 0
81 9 0 23 -107 27 -199 7 -105 -22 -229 -30 -244 -15 -8 8 1 22 29 48 33 32
65 46 190 87 157 51 224 80 224 96 0 15 -12 12 -41 -10z"/>
<path d="M922 905 c-102 -49 -96 -77 21 -88 45 -4 57 -3 57 9 0 10 -14 14 -52
14 -71 0 -91 13 -52 33 16 8 46 20 67 26 20 7 37 19 37 27 0 18 6 20 -78 -21z"/>
<path d="M0 570 c0 -5 9 -10 19 -10 38 0 181 -83 248 -144 94 -85 122 -103
176 -116 65 -17 127 0 223 61 161 101 284 104 284 6 0 -47 -30 -71 -194 -158
-102 -54 -158 -91 -205 -136 -37 -33 -63 -64 -59 -68 4 -5 36 19 71 51 44 41
106 81 203 133 145 77 190 110 205 150 13 32 -5 85 -36 105 -49 32 -160 12
-250 -45 -171 -109 -244 -107 -375 9 -79 70 -173 130 -241 152 -68 23 -69 23
-69 10z"/>
<path d="M0 492 c0 -6 15 -14 33 -17 49 -11 104 -41 200 -112 206 -151 312
-162 472 -47 64 45 95 51 95 19 0 -19 -68 -68 -198 -141 -97 -55 -174 -121
-203 -176 -19 -36 9 -17 55 36 30 35 74 70 128 102 170 97 227 136 235 157 13
41 -2 67 -41 67 -10 0 -48 -21 -84 -46 -157 -110 -245 -100 -449 49 -48 35
-106 74 -128 85 -50 25 -115 39 -115 24z"/>
<path d="M0 410 c0 -5 9 -10 20 -10 41 0 128 -42 194 -95 37 -30 94 -67 125
-82 91 -44 92 -56 10 -149 -70 -80 -64 -100 7 -24 68 72 76 86 72 122 -3 27
-11 35 -73 67 -38 21 -99 60 -135 89 -64 52 -149 92 -195 92 -14 0 -25 -4 -25
-10z"/>
<path d="M0 327 c0 -8 14 -11 45 -9 34 3 59 -3 99 -22 56 -28 156 -124 156
-151 0 -9 -15 -30 -34 -48 -34 -32 -56 -66 -56 -86 0 -19 18 -12 25 11 4 11
25 38 46 59 22 22 39 48 39 61 0 50 -97 147 -184 183 -44 19 -136 20 -136 2z"/>
<path d="M22 264 c-12 -8 -22 -24 -22 -36 0 -19 2 -19 21 6 36 46 125 26 175
-39 32 -42 30 -69 -5 -103 -27 -25 -35 -45 -32 -79 2 -27 21 -12 21 16 0 21 9
37 32 54 40 32 42 72 4 121 -50 66 -144 95 -194 60z"/>
<path d="M945 261 c-28 -10 -69 -28 -92 -40 -51 -26 -164 -130 -194 -177 -24
-40 -15 -62 10 -24 59 91 166 175 268 211 34 13 63 29 63 36 0 7 -1 13 -2 12
-2 0 -26 -8 -53 -18z"/>
<path d="M907 206 c-42 -15 -56 -25 -110 -75 -46 -43 -95 -131 -73 -131 7 0
16 10 20 23 8 34 81 113 129 142 23 13 61 27 85 31 23 3 42 10 42 15 0 13 -49
10 -93 -5z"/>
<path d="M73 184 c-10 -14 -30 -37 -45 -51 -42 -40 -32 -83 19 -83 16 0 24 -7
29 -25 7 -27 24 -34 24 -10 0 21 -36 55 -59 55 -36 0 -33 19 11 70 44 52 63
58 82 27 8 -13 7 -24 -6 -48 -19 -33 -22 -71 -8 -104 6 -15 9 -7 10 30 0 28 7
59 15 69 20 27 19 52 -5 76 -27 27 -45 25 -67 -6z"/>
<path d="M902 153 c-49 -24 -134 -135 -117 -151 4 -4 12 1 19 12 54 89 113
136 170 136 14 0 26 5 26 10 0 16 -61 11 -98 -7z"/>
<path d="M933 86 c-31 -26 -69 -86 -55 -86 5 0 23 18 41 40 17 22 43 43 56 46
14 3 25 10 25 15 0 17 -39 9 -67 -15z"/>
<path d="M965 24 l-30 -24 30 2 c24 1 31 7 33 25 2 28 4 28 -33 -3z"/>
<path d="M0 10 c0 -5 9 -10 21 -10 11 0 17 4 14 10 -8 13 -35 13 -35 0z"/>
</g>
</svg>
