<?xml version="1.0" encoding="UTF-8"?>
<svg xmlns="http://www.w3.org/2000/svg" xmlns:xlink="http://www.w3.org/1999/xlink" width="16pt" height="16pt" viewBox="0 0 16 16" version="1.1">
<g id="surface1">
<path style=" stroke:none;fill-rule:nonzero;fill:rgb(0%,0%,0%);fill-opacity:1;" d="M 0 0.175781 C 0 0.257812 0.078125 0.289062 0.160156 0.242188 C 0.242188 0.191406 0.320312 0.109375 0.320312 0.0625 C 0.320312 0.03125 0.257812 0 0.160156 0 C 0.078125 0 0 0.078125 0 0.175781 Z M 0 0.175781 "/>
<path style=" stroke:none;fill-rule:nonzero;fill:rgb(0%,0%,0%);fill-opacity:1;" d="M 1.472656 0.273438 C 0.929688 0.65625 0 1.921875 0 2.273438 C 0 2.480469 0.242188 2.289062 0.734375 1.648438 C 1.136719 1.136719 1.664062 0.5625 1.90625 0.367188 C 2.398438 -0.0625 2.046875 -0.128906 1.472656 0.273438 Z M 1.472656 0.273438 "/>
<path style=" stroke:none;fill-rule:nonzero;fill:rgb(0%,0%,0%);fill-opacity:1;" d="M 3.199219 0.640625 C 2.128906 1.421875 1.90625 1.695312 1.183594 3.117188 C 0.863281 3.726562 0.464844 4.398438 0.289062 4.59375 C 0.109375 4.78125 0 5.023438 0.03125 5.152344 C 0.160156 5.519531 0.960938 4.527344 1.519531 3.3125 C 2.109375 2 2.882812 1.199219 4.160156 0.496094 C 4.976562 0.046875 5.007812 0 4.5625 0.015625 C 4.257812 0.015625 3.757812 0.242188 3.199219 0.640625 Z M 3.199219 0.640625 "/>
<path style=" stroke:none;fill-rule:nonzero;fill:rgb(0%,0%,0%);fill-opacity:1;" d="M 5.488281 1.085938 C 3.757812 2.800781 2.863281 4.898438 3.199219 6.480469 C 3.503906 7.953125 4.398438 8.914062 5.824219 9.296875 C 7.007812 9.617188 7.855469 9.519531 9.773438 8.800781 C 12.226562 7.90625 13.585938 7.792969 15.007812 8.367188 C 15.726562 8.65625 16 8.703125 16 8.5625 C 16 8.429688 15.585938 8.191406 15.085938 8 C 13.726562 7.488281 12.109375 7.617188 9.921875 8.398438 C 8 9.085938 7.023438 9.234375 5.953125 8.960938 C 2.351562 8.0625 2.832031 3.296875 6.800781 0.367188 C 7.25 0.03125 7.25 0.015625 6.929688 0 C 6.703125 0 6.175781 0.382812 5.488281 1.085938 Z M 5.488281 1.085938 "/>
<path style=" stroke:none;fill-rule:nonzero;fill:rgb(0%,0%,0%);fill-opacity:1;" d="M 8.078125 0.429688 C 6.578125 1.390625 5.617188 2.6875 5.199219 4.304688 C 4.882812 5.585938 4.992188 6.414062 5.617188 7.117188 C 6.527344 8.144531 8.832031 8.273438 11.601562 7.421875 C 13.167969 6.945312 15.007812 6.832031 15.648438 7.167969 C 15.9375 7.34375 16 7.328125 16 7.136719 C 16 6.832031 15.054688 6.5625 13.984375 6.5625 C 13.535156 6.5625 12.464844 6.765625 11.585938 7.039062 C 9.617188 7.632812 8.335938 7.773438 7.183594 7.535156 C 5.984375 7.28125 5.570312 6.832031 5.472656 5.695312 C 5.296875 3.570312 6.578125 1.632812 9.007812 0.367188 C 9.664062 0.015625 9.679688 0.015625 9.199219 0.015625 C 8.945312 0.015625 8.429688 0.207031 8.078125 0.429688 Z M 8.078125 0.429688 "/>
<path style=" stroke:none;fill-rule:nonzero;fill:rgb(0%,0%,0%);fill-opacity:1;" d="M 12.800781 0.257812 C 12.496094 0.382812 11.554688 0.75 10.71875 1.070312 C 8.5625 1.871094 7.824219 2.289062 7.152344 3.023438 C 6.03125 4.273438 5.808594 5.199219 6.429688 6 C 7.25 7.039062 8.511719 7.117188 11.453125 6.304688 C 13.023438 5.855469 13.808594 5.726562 14.765625 5.726562 C 16.078125 5.726562 16.414062 5.535156 15.375 5.359375 C 14.527344 5.21875 13.535156 5.375 11.4375 5.96875 C 8.429688 6.816406 6.882812 6.609375 6.496094 5.3125 C 6.382812 4.882812 6.429688 4.671875 6.898438 3.90625 C 7.570312 2.800781 8.078125 2.480469 11.25 1.25 C 14.464844 0 14.429688 0.015625 13.839844 0.015625 C 13.585938 0.015625 13.101562 0.128906 12.800781 0.257812 Z M 12.800781 0.257812 "/>
<path style=" stroke:none;fill-rule:nonzero;fill:rgb(0%,0%,0%);fill-opacity:1;" d="M 15.34375 0.480469 C 15.117188 0.640625 14.109375 1.007812 13.101562 1.28125 C 12.09375 1.554688 10.863281 1.96875 10.351562 2.191406 C 9.4375 2.609375 8.480469 3.488281 8.480469 3.90625 C 8.480469 4.609375 9.96875 4.734375 12.191406 4.242188 C 12.960938 4.078125 13.890625 4 14.703125 4.03125 C 15.617188 4.0625 16 4.03125 16 3.890625 C 16 3.519531 14.289062 3.453125 12.816406 3.773438 C 11.136719 4.128906 9.152344 4.257812 8.914062 4.015625 C 8.78125 3.890625 8.929688 3.664062 9.375 3.25 C 9.90625 2.734375 10.414062 2.511719 12.414062 1.855469 C 14.929688 1.039062 16 0.578125 16 0.320312 C 16 0.078125 15.808594 0.128906 15.34375 0.480469 Z M 15.34375 0.480469 "/>
<path style=" stroke:none;fill-rule:nonzero;fill:rgb(0%,0%,0%);fill-opacity:1;" d="M 14.75 1.519531 C 13.117188 2.304688 13.21875 2.75 15.085938 2.929688 C 15.808594 2.992188 16 2.976562 16 2.78125 C 16 2.625 15.773438 2.5625 15.167969 2.5625 C 14.03125 2.5625 13.710938 2.351562 14.335938 2.03125 C 14.59375 1.90625 15.070312 1.710938 15.40625 1.617188 C 15.726562 1.503906 16 1.3125 16 1.183594 C 16 0.898438 16.09375 0.863281 14.75 1.519531 Z M 14.75 1.519531 "/>
<path style=" stroke:none;fill-rule:nonzero;fill:rgb(0%,0%,0%);fill-opacity:1;" d="M 0 6.882812 C 0 6.960938 0.144531 7.039062 0.304688 7.039062 C 0.914062 7.039062 3.199219 8.367188 4.273438 9.34375 C 5.773438 10.703125 6.226562 10.992188 7.085938 11.199219 C 8.128906 11.472656 9.117188 11.199219 10.65625 10.226562 C 13.234375 8.609375 15.199219 8.5625 15.199219 10.128906 C 15.199219 10.882812 14.71875 11.265625 12.09375 12.65625 C 10.464844 13.519531 9.570312 14.109375 8.816406 14.832031 C 8.226562 15.359375 7.808594 15.855469 7.871094 15.921875 C 7.9375 16 8.445312 15.617188 9.007812 15.101562 C 9.710938 14.445312 10.703125 13.808594 12.257812 12.976562 C 14.578125 11.742188 15.296875 11.21875 15.535156 10.578125 C 15.742188 10.0625 15.453125 9.21875 14.960938 8.898438 C 14.175781 8.382812 12.398438 8.703125 10.960938 9.617188 C 8.226562 11.359375 7.054688 11.328125 4.960938 9.472656 C 3.695312 8.351562 2.191406 7.390625 1.101562 7.039062 C 0.015625 6.671875 0 6.671875 0 6.882812 Z M 0 6.882812 "/>
<path style=" stroke:none;fill-rule:nonzero;fill:rgb(0%,0%,0%);fill-opacity:1;" d="M 0 8.128906 C 0 8.226562 0.242188 8.351562 0.527344 8.398438 C 1.3125 8.578125 2.191406 9.054688 3.726562 10.191406 C 7.023438 12.609375 8.71875 12.78125 11.28125 10.945312 C 12.304688 10.226562 12.800781 10.128906 12.800781 10.640625 C 12.800781 10.945312 11.710938 11.726562 9.632812 12.898438 C 8.078125 13.773438 6.847656 14.832031 6.382812 15.710938 C 6.078125 16.289062 6.527344 15.984375 7.265625 15.136719 C 7.742188 14.578125 8.445312 14.015625 9.3125 13.503906 C 12.03125 11.953125 12.945312 11.328125 13.070312 10.992188 C 13.28125 10.335938 13.039062 9.921875 12.414062 9.921875 C 12.257812 9.921875 11.648438 10.257812 11.070312 10.65625 C 8.5625 12.414062 7.152344 12.257812 3.890625 9.871094 C 3.117188 9.3125 2.191406 8.6875 1.839844 8.511719 C 1.039062 8.109375 0 7.890625 0 8.128906 Z M 0 8.128906 "/>
<path style=" stroke:none;fill-rule:nonzero;fill:rgb(0%,0%,0%);fill-opacity:1;" d="M 0 9.4375 C 0 9.519531 0.144531 9.601562 0.320312 9.601562 C 0.976562 9.601562 2.367188 10.273438 3.421875 11.117188 C 4.015625 11.601562 4.929688 12.191406 5.421875 12.429688 C 6.882812 13.136719 6.898438 13.328125 5.585938 14.816406 C 4.464844 16.09375 4.5625 16.414062 5.695312 15.199219 C 6.78125 14.046875 6.914062 13.824219 6.847656 13.25 C 6.800781 12.816406 6.671875 12.6875 5.679688 12.175781 C 5.070312 11.839844 4.09375 11.21875 3.519531 10.75 C 2.496094 9.921875 1.136719 9.28125 0.398438 9.28125 C 0.175781 9.28125 0 9.34375 0 9.4375 Z M 0 9.4375 "/>
<path style=" stroke:none;fill-rule:nonzero;fill:rgb(0%,0%,0%);fill-opacity:1;" d="M 0 10.765625 C 0 10.898438 0.226562 10.945312 0.71875 10.914062 C 1.265625 10.863281 1.664062 10.960938 2.304688 11.265625 C 3.199219 11.710938 4.800781 13.25 4.800781 13.679688 C 4.800781 13.824219 4.5625 14.160156 4.257812 14.445312 C 3.710938 14.960938 3.359375 15.503906 3.359375 15.824219 C 3.359375 16.128906 3.648438 16.015625 3.757812 15.648438 C 3.824219 15.472656 4.160156 15.039062 4.496094 14.703125 C 4.847656 14.351562 5.117188 13.9375 5.117188 13.726562 C 5.117188 12.929688 3.570312 11.375 2.175781 10.800781 C 1.472656 10.496094 0 10.480469 0 10.765625 Z M 0 10.765625 "/>
<path style=" stroke:none;fill-rule:nonzero;fill:rgb(0%,0%,0%);fill-opacity:1;" d="M 0.351562 11.773438 C 0.160156 11.90625 0 12.160156 0 12.351562 C 0 12.65625 0.03125 12.65625 0.335938 12.257812 C 0.914062 11.519531 2.335938 11.839844 3.136719 12.882812 C 3.648438 13.554688 3.617188 13.984375 3.054688 14.527344 C 2.625 14.929688 2.496094 15.25 2.546875 15.792969 C 2.578125 16.226562 2.882812 15.984375 2.882812 15.535156 C 2.882812 15.199219 3.023438 14.945312 3.390625 14.671875 C 4.03125 14.160156 4.0625 13.519531 3.453125 12.734375 C 2.65625 11.679688 1.152344 11.21875 0.351562 11.773438 Z M 0.351562 11.773438 "/>
<path style=" stroke:none;fill-rule:nonzero;fill:rgb(0%,0%,0%);fill-opacity:1;" d="M 15.117188 11.824219 C 14.671875 11.984375 14.015625 12.273438 13.648438 12.464844 C 12.832031 12.882812 11.023438 14.546875 10.546875 15.296875 C 10.160156 15.9375 10.304688 16.289062 10.703125 15.679688 C 11.648438 14.226562 13.359375 12.882812 14.992188 12.304688 C 15.535156 12.09375 16 11.839844 16 11.726562 C 16 11.617188 15.984375 11.519531 15.96875 11.535156 C 15.9375 11.535156 15.554688 11.664062 15.117188 11.824219 Z M 15.117188 11.824219 "/>
<path style=" stroke:none;fill-rule:nonzero;fill:rgb(0%,0%,0%);fill-opacity:1;" d="M 14.511719 12.703125 C 13.839844 12.945312 13.617188 13.101562 12.75 13.90625 C 12.015625 14.59375 11.234375 16 11.585938 16 C 11.695312 16 11.839844 15.839844 11.90625 15.632812 C 12.03125 15.085938 13.199219 13.824219 13.96875 13.359375 C 14.335938 13.152344 14.945312 12.929688 15.328125 12.863281 C 15.695312 12.816406 16 12.703125 16 12.625 C 16 12.414062 15.21875 12.464844 14.511719 12.703125 Z M 14.511719 12.703125 "/>
<path style=" stroke:none;fill-rule:nonzero;fill:rgb(0%,0%,0%);fill-opacity:1;" d="M 1.167969 13.054688 C 1.007812 13.28125 0.6875 13.648438 0.445312 13.871094 C -0.226562 14.511719 -0.0625 15.199219 0.75 15.199219 C 1.007812 15.199219 1.136719 15.3125 1.21875 15.601562 C 1.328125 16.03125 1.601562 16.144531 1.601562 15.757812 C 1.601562 15.421875 1.023438 14.882812 0.65625 14.882812 C 0.078125 14.882812 0.128906 14.578125 0.832031 13.757812 C 1.535156 12.929688 1.839844 12.832031 2.144531 13.328125 C 2.273438 13.535156 2.257812 13.710938 2.046875 14.09375 C 1.742188 14.625 1.695312 15.234375 1.921875 15.757812 C 2.015625 16 2.0625 15.871094 2.078125 15.28125 C 2.078125 14.832031 2.191406 14.335938 2.320312 14.175781 C 2.640625 13.742188 2.625 13.34375 2.242188 12.960938 C 1.808594 12.527344 1.519531 12.5625 1.167969 13.054688 Z M 1.167969 13.054688 "/>
<path style=" stroke:none;fill-rule:nonzero;fill:rgb(0%,0%,0%);fill-opacity:1;" d="M 14.429688 13.554688 C 13.648438 13.9375 12.289062 15.710938 12.5625 15.96875 C 12.625 16.03125 12.75 15.953125 12.863281 15.773438 C 13.726562 14.351562 14.671875 13.601562 15.585938 13.601562 C 15.808594 13.601562 16 13.519531 16 13.4375 C 16 13.183594 15.023438 13.265625 14.429688 13.554688 Z M 14.429688 13.554688 "/>
<path style=" stroke:none;fill-rule:nonzero;fill:rgb(0%,0%,0%);fill-opacity:1;" d="M 14.929688 14.625 C 14.429688 15.039062 13.824219 16 14.046875 16 C 14.128906 16 14.414062 15.710938 14.703125 15.359375 C 14.976562 15.007812 15.390625 14.671875 15.601562 14.625 C 15.824219 14.578125 16 14.464844 16 14.382812 C 16 14.109375 15.375 14.242188 14.929688 14.625 Z M 14.929688 14.625 "/>
<path style=" stroke:none;fill-rule:nonzero;fill:rgb(0%,0%,0%);fill-opacity:1;" d="M 15.4375 15.617188 L 14.960938 16 L 15.4375 15.96875 C 15.824219 15.953125 15.9375 15.855469 15.96875 15.570312 C 16 15.117188 16.03125 15.117188 15.4375 15.617188 Z M 15.4375 15.617188 "/>
<path style=" stroke:none;fill-rule:nonzero;fill:rgb(0%,0%,0%);fill-opacity:1;" d="M 0 15.839844 C 0 15.921875 0.144531 16 0.335938 16 C 0.511719 16 0.609375 15.9375 0.5625 15.839844 C 0.429688 15.632812 0 15.632812 0 15.839844 Z M 0 15.839844 "/>
</g>
</svg>
